<svg width="44" height="44" viewBox="0 0 44 44" fill="none" xmlns="http://www.w3.org/2000/svg">
<g clip-path="url(#clip0)">
<path d="M20.24 27.9641C20.1422 28.1597 20.1422 28.453 20.0444 28.6486C19.8489 29.6263 19.6533 30.5063 19.4577 31.4841C19.2622 32.1686 19.0666 32.853 18.8711 33.6352C18.6755 34.2219 18.3822 34.8086 18.0889 35.3952C17.6 36.2752 17.1111 37.1552 16.5244 37.9375C16.4266 38.0352 16.3289 38.3286 16.1333 38.2308C15.84 38.133 15.9377 37.9375 15.9377 37.7419C15.6444 36.4708 15.6444 35.1997 15.6444 33.8308C15.6444 33.1463 15.6444 32.4619 15.84 31.7775C16.0355 31.093 16.1333 30.4086 16.3289 29.7241C16.4266 29.2352 16.5244 28.7463 16.6222 28.2575C16.72 27.7686 16.8177 27.3775 16.9155 26.8886C17.0133 26.3019 17.2089 25.7152 17.3066 25.1286C17.4044 24.5419 17.6 24.053 17.6977 23.4663C17.7955 23.0752 17.8933 22.6841 17.9911 22.3908C17.9911 22.1952 17.9911 21.9997 17.8933 21.8041C17.6977 21.3152 17.6 20.7286 17.5022 20.1419C17.4044 19.4575 17.5022 18.6752 17.6 17.9908C17.8933 16.9152 18.2844 15.9375 19.2622 15.253C20.3377 14.5686 21.9022 14.8619 22.3911 16.133C22.6844 16.9152 22.5866 17.7952 22.4889 18.5775C22.3911 19.2619 22.1955 20.0441 22 20.7286C21.8044 21.3152 21.7066 21.8041 21.5111 22.3908C21.4133 22.8797 21.2177 23.2708 21.2177 23.7597C21.2177 24.053 21.2177 24.2486 21.2177 24.5419C21.3155 25.6175 21.9022 26.3019 22.7822 26.693C23.2711 26.8886 23.8577 26.8886 24.4444 26.7908C25.0311 26.5952 25.52 26.3997 26.0089 26.0086C26.5955 25.6175 26.8889 25.0308 27.28 24.4441C27.6711 23.8575 27.8666 23.173 28.0622 22.5863C28.3555 21.7063 28.5511 20.8263 28.6489 19.9463C28.7466 19.2619 28.7466 18.5775 28.7466 17.7952C28.7466 16.5241 28.4533 15.253 27.8666 14.1775C27.4755 13.493 26.8889 12.9063 26.2044 12.4175C25.6177 12.0263 25.0311 11.8308 24.4444 11.5375C24.2489 11.4397 24.0533 11.4397 23.76 11.3419C23.0755 11.1463 22.2933 11.1463 21.6089 11.2441C20.7289 11.2441 19.8489 11.4397 19.0666 11.8308C18.1866 12.2219 17.4044 12.7108 16.8177 13.2975C16.1333 13.9819 15.5466 14.6663 15.1555 15.5463C14.8622 16.2308 14.5689 16.9152 14.4711 17.6975C14.3733 18.5775 14.2755 19.5552 14.3733 20.4352C14.4711 21.0219 14.6666 21.6086 14.96 22.0975C15.0577 22.3908 15.2533 22.5863 15.4489 22.7819C15.6444 22.9775 15.7422 23.2708 15.6444 23.5641C15.5466 24.053 15.4489 24.5419 15.2533 25.0308C15.1555 25.4219 14.7644 25.6175 14.3733 25.4219C13.2977 24.8352 12.4177 23.9552 11.9289 22.7819C11.44 21.7063 11.2444 20.6308 11.2444 19.4575C11.2444 18.6752 11.1466 17.7952 11.3422 17.013C11.5377 16.3286 11.6355 15.7419 11.9289 15.1552C12.2222 14.373 12.6133 13.5908 13.1022 12.9063C13.7866 11.8308 14.6666 10.9508 15.7422 10.2663C16.5244 9.67968 17.4044 9.28857 18.2844 8.89746C18.8711 8.7019 19.4577 8.50635 20.0444 8.40857C21.12 8.21301 22.1955 8.11523 23.2711 8.11523C23.8577 8.11523 24.4444 8.31079 24.9333 8.31079C25.7155 8.79968 26.4 9.09301 27.0844 9.38635C27.5733 9.5819 27.9644 9.87523 28.4533 10.1686C29.1377 10.6575 29.7244 11.1463 30.3111 11.733C30.9955 12.4175 31.4844 13.2975 31.8755 14.0797C32.0711 14.4708 32.1689 14.9597 32.3644 15.3508C32.4622 15.5463 32.4622 15.7419 32.4622 15.9375C32.56 16.3286 32.56 16.6219 32.6577 17.013C32.8533 17.6975 32.7555 18.3819 32.7555 19.0663C32.7555 19.653 32.6577 20.2397 32.56 20.8263C32.4622 21.1197 32.56 21.413 32.4622 21.7063C32.3644 22.1952 32.2666 22.5863 32.0711 23.0752C31.8755 23.7597 31.5822 24.4441 31.2889 25.1286C30.6044 26.4975 29.6266 27.7686 28.3555 28.6486C27.8666 28.9419 27.3777 29.2352 26.8889 29.4308C25.7155 29.9197 24.5422 30.1152 23.2711 29.8219C22.0977 29.6263 21.12 29.0397 20.4355 28.0619C20.3377 28.0619 20.24 28.0619 20.24 27.9641Z" fill="#434A54"/>
<path d="M22 43.022C33.6103 43.022 43.0222 33.61 43.0222 21.9998C43.0222 10.3895 33.6103 0.977539 22 0.977539C10.3898 0.977539 0.977783 10.3895 0.977783 21.9998C0.977783 33.61 10.3898 43.022 22 43.022Z" stroke="#434A54" stroke-width="2" stroke-miterlimit="1" stroke-linecap="round" stroke-linejoin="round"/>
</g>
<defs>
<clipPath id="clip0">
<rect width="44" height="44" fill="white"/>
</clipPath>
</defs>
</svg>
